<svg width="28" height="29" viewBox="0 0 28 29" fill="none" xmlns="http://www.w3.org/2000/svg">
<g id="Group 8">
<rect id="bg" y="0.5" width="28" height="28" rx="6" fill="url(#paint0_radial_6337_560)"/>
<rect id="bg_2" y="0.5" width="28" height="28" rx="6" fill="#DA7D4A"/>
<g id="instagram">
<path d="M21 9C21 9.82843 20.3284 10.5 19.5 10.5C18.6716 10.5 18 9.82843 18 9C18 8.17157 18.6716 7.5 19.5 7.5C20.3284 7.5 21 8.17157 21 9Z" fill="white"/>
<path fill-rule="evenodd" clip-rule="evenodd" d="M14 19.5C16.7614 19.5 19 17.2614 19 14.5C19 11.7386 16.7614 9.5 14 9.5C11.2386 9.5 9 11.7386 9 14.5C9 17.2614 11.2386 19.5 14 19.5ZM14 17.5C15.6569 17.5 17 16.1569 17 14.5C17 12.8431 15.6569 11.5 14 11.5C12.3431 11.5 11 12.8431 11 14.5C11 16.1569 12.3431 17.5 14 17.5Z" fill="white"/>
<path fill-rule="evenodd" clip-rule="evenodd" d="M4 14.1C4 10.7397 4 9.05953 4.65396 7.77606C5.2292 6.64708 6.14708 5.7292 7.27606 5.15396C8.55953 4.5 10.2397 4.5 13.6 4.5H14.4C17.7603 4.5 19.4405 4.5 20.7239 5.15396C21.8529 5.7292 22.7708 6.64708 23.346 7.77606C24 9.05953 24 10.7397 24 14.1V14.9C24 18.2603 24 19.9405 23.346 21.2239C22.7708 22.3529 21.8529 23.2708 20.7239 23.846C19.4405 24.5 17.7603 24.5 14.4 24.5H13.6C10.2397 24.5 8.55953 24.5 7.27606 23.846C6.14708 23.2708 5.2292 22.3529 4.65396 21.2239C4 19.9405 4 18.2603 4 14.9V14.1ZM13.6 6.5H14.4C16.1132 6.5 17.2777 6.50156 18.1779 6.5751C19.0548 6.64674 19.5032 6.77659 19.816 6.93597C20.5686 7.31947 21.1805 7.93139 21.564 8.68404C21.7234 8.99684 21.8533 9.44524 21.9249 10.3221C21.9984 11.2223 22 12.3868 22 14.1V14.9C22 16.6132 21.9984 17.7777 21.9249 18.6779C21.8533 19.5548 21.7234 20.0032 21.564 20.316C21.1805 21.0686 20.5686 21.6805 19.816 22.064C19.5032 22.2234 19.0548 22.3533 18.1779 22.4249C17.2777 22.4984 16.1132 22.5 14.4 22.5H13.6C11.8868 22.5 10.7223 22.4984 9.82208 22.4249C8.94524 22.3533 8.49684 22.2234 8.18404 22.064C7.43139 21.6805 6.81947 21.0686 6.43597 20.316C6.27659 20.0032 6.14674 19.5548 6.0751 18.6779C6.00156 17.7777 6 16.6132 6 14.9V14.1C6 12.3868 6.00156 11.2223 6.0751 10.3221C6.14674 9.44524 6.27659 8.99684 6.43597 8.68404C6.81947 7.93139 7.43139 7.31947 8.18404 6.93597C8.49684 6.77659 8.94524 6.64674 9.82208 6.5751C10.7223 6.50156 11.8868 6.5 13.6 6.5Z" fill="white"/>
</g>
</g>
<defs>
<radialGradient id="paint0_radial_6337_560" cx="0" cy="0" r="1" gradientUnits="userSpaceOnUse" gradientTransform="translate(10 21.5) rotate(-55.3758) scale(25.5196)">
<stop stop-color="#B13589"/>
<stop offset="0.79309" stop-color="#C62F94"/>
<stop offset="1" stop-color="#8A3AC8"/>
</radialGradient>
</defs>
</svg>
