<svg width="221" height="246" viewBox="0 0 221 246" fill="none" xmlns="http://www.w3.org/2000/svg">
    <g clip-path="url(#clip0_6897_1687)">
        <mask id="mask0_6897_1687" style="mask-type:luminance" maskUnits="userSpaceOnUse" x="0"
            y="0" width="221" height="246">
            <path d="M220.5 0H0.5V246H220.5V0Z" fill="white" />
        </mask>
        <g mask="url(#mask0_6897_1687)">
            <path
                d="M51.1563 67.9744H88.1671V38.4185H51.1563V67.9744ZM29.7568 21.4917H109.567V87.0937H88.1671V84.9888H51.1563V87.0937H29.7568V21.4917Z"
                fill="url(#paint0_linear_6897_1687)" />
            <path
                d="M166.432 72.3595H176.343V68.7637H166.432V72.3595ZM148.716 68.7637H138.806V72.3595H148.716V68.7637ZM166.432 56.4852H176.343V53.5033H166.432V56.4852ZM148.716 56.4852V53.5033H138.806V56.4852H148.716ZM119.336 41.4003H195.813V86.8305H176.343V85.6027H138.806V86.8305H119.336V41.4003ZM180.991 19.2114V21.9302H198.093V38.0675H180.991V39.8216H162.749V38.0675H152.137V39.8216H133.982V38.0675H117.055V21.9302H133.982V19.2114H152.137V21.9302H162.749V19.2114H180.991Z"
                fill="url(#paint1_linear_6897_1687)" />
            <path
                d="M83.2403 113.621C82.0387 112.476 79.9456 105.402 80.2585 102.697C85.8029 104.829 88.9746 109.91 88.9746 109.91C86.1689 112.943 83.2403 113.621 83.2403 113.621Z"
                fill="#DDE3F7" />
            <path
                d="M135.05 110.442C135.682 108.911 141.534 104.386 144.18 103.685C144.214 109.597 140.623 114.392 140.623 114.392C136.755 112.905 135.05 110.442 135.05 110.442Z"
                fill="#DDE3F7" />
            <path
                d="M159.706 144.937C161.115 144.053 168.52 143.747 171.086 144.706C167.662 149.54 161.939 151.372 161.939 151.372C159.656 147.928 159.706 144.937 159.706 144.937Z"
                fill="#DDE3F7" />
            <path
                d="M63.2705 149.953C60.04 147.796 55.9321 141.17 55.9321 141.17C62.7954 141.575 67.6076 144.644 67.6076 144.644C65.0674 150.445 63.2705 149.953 63.2705 149.953Z"
                fill="#DDE3F7" />
            <g opacity="1.023">
                <path
                    d="M152.556 171.111C159.383 168.225 164.171 161.494 164.171 153.649C164.171 143.586 156.29 135.357 146.33 134.728C147.308 132.437 147.845 129.917 147.845 127.27C147.845 116.7 139.231 108.132 128.605 108.132C121.961 108.132 116.104 111.483 112.647 116.575C108.931 111.232 102.733 107.732 95.7089 107.732C84.3395 107.732 75.1228 116.9 75.1228 128.208C75.1228 131.336 75.8317 134.299 77.0925 136.949C67.2954 137.884 60.946 144.482 61.0003 154.732C61.0375 162.282 66.6236 169.282 72.5556 171.433C82.4955 176.092 84.2594 174.531 81.4035 195.676C77.4098 225.263 68.053 293.808 66.6264 335.33C128.259 335.33 152.885 335.33 152.885 335.33C149.674 254.229 138.285 181.985 138.974 176.658C139.494 172.7 145.026 174.853 152.556 171.111Z"
                    fill="#D55D2D" />
            </g>
            <g opacity="1.06704">
                <path
                    d="M109.019 144.558C120.627 144.558 130.599 162.469 125.985 166.761C119.124 173.143 116.461 166.316 109.913 166.316C103.365 166.316 98.6654 172.643 92.8001 167.944C86.6962 163.06 98.0064 144.558 109.019 144.558Z"
                    fill="#EBA2A2" />
            </g>
            <g opacity="1.09201">
                <path
                    d="M79.4382 155.211C79.4382 157.387 77.6652 159.151 75.4772 159.151C73.2891 159.151 71.5161 157.387 71.5161 155.211C71.5161 153.035 73.2891 151.271 75.4772 151.271C77.6652 151.274 79.4382 153.038 79.4382 155.211Z"
                    fill="#EBA2A2" />
            </g>
            <g opacity="1.09137">
                <path
                    d="M100.216 131.026C100.216 133.201 98.4444 134.963 96.2576 134.963C94.0708 134.963 92.2988 133.201 92.2988 131.026C92.2988 128.85 94.0708 127.088 96.2576 127.088C98.4444 127.088 100.216 128.85 100.216 131.026Z"
                    fill="#EBA2A2" />
            </g>
            <g opacity="1.06892">
                <path
                    d="M132.677 131.585C132.677 133.716 130.942 135.442 128.8 135.442C126.658 135.442 124.923 133.716 124.923 131.585C124.923 129.455 126.658 127.729 128.8 127.729C130.942 127.729 132.677 129.455 132.677 131.585Z"
                    fill="#EBA2A2" />
            </g>
            <g opacity="1.03037">
                <path
                    d="M148.546 155.947C148.546 158.001 146.873 159.665 144.808 159.665C142.744 159.665 141.071 158.001 141.071 155.947C141.071 153.894 142.744 152.229 144.808 152.229C146.873 152.229 148.546 153.894 148.546 155.947Z"
                    fill="#EBA2A2" />
            </g>
        </g>
    </g>
    <defs>
        <linearGradient id="paint0_linear_6897_1687" x1="26.9316" y1="63.0641" x2="194.092"
            y2="63.7546" gradientUnits="userSpaceOnUse">
            <stop stop-color="#E6793B" />
            <stop offset="1" stop-color="#FF4185" />
        </linearGradient>
        <linearGradient id="paint1_linear_6897_1687" x1="35.687" y1="63.0644" x2="199.694"
            y2="63.0643" gradientUnits="userSpaceOnUse">
            <stop stop-color="#E6793B" />
            <stop offset="1" stop-color="#FF4185" />
        </linearGradient>
        <clipPath id="clip0_6897_1687">
            <rect width="220" height="246" fill="white" transform="translate(0.5)" />
        </clipPath>
    </defs>
</svg>