<svg width="28" height="21" viewBox="0 0 28 21" fill="none" xmlns="http://www.w3.org/2000/svg">
<g id="Group 9">
<path id="bg" d="M0.244506 4.44111C0.373037 2.46233 1.96395 0.911566 3.94447 0.813446C6.81239 0.671362 10.9115 0.5 14 0.5C17.0885 0.5 21.1876 0.671362 24.0555 0.813446C26.0361 0.911566 27.627 2.46233 27.7555 4.44111C27.8786 6.33693 28 8.66966 28 10.5C28 12.3303 27.8786 14.6631 27.7555 16.5589C27.627 18.5377 26.0361 20.0884 24.0555 20.1866C21.1876 20.3286 17.0885 20.5 14 20.5C10.9115 20.5 6.81239 20.3286 3.94447 20.1866C1.96395 20.0884 0.373037 18.5377 0.244506 16.5589C0.121364 14.6631 0 12.3303 0 10.5C0 8.66966 0.121364 6.33693 0.244506 4.44111Z" fill="#DA7D4A"/>
<path id="play" d="M11 6.5V14.5L19 10.5L11 6.5Z" fill="white"/>
</g>
</svg>
